<svg width="16" height="16" viewBox="0 0 16 16" fill="none" xmlns="http://www.w3.org/2000/svg">
<path d="M14.0667 9.91667L8.46667 15.5333C8.4 15.6 8.32778 15.6471 8.25 15.6747C8.17222 15.7027 8.08889 15.7167 8 15.7167C7.91111 15.7167 7.82778 15.7027 7.75 15.6747C7.67222 15.6471 7.6 15.6 7.53333 15.5333L1.91667 9.91667C1.76111 9.76112 1.68333 9.56667 1.68333 9.33334C1.68333 9.10001 1.76667 8.90001 1.93333 8.73334C2.1 8.56668 2.29445 8.48334 2.51667 8.48334C2.73889 8.48334 2.93333 8.56668 3.1 8.73334L8 13.6333L12.9 8.73334C13.0556 8.57779 13.2471 8.50001 13.4747 8.50001C13.7027 8.50001 13.9 8.58334 14.0667 8.75001C14.2333 8.91667 14.3167 9.11112 14.3167 9.33334C14.3167 9.55556 14.2333 9.75001 14.0667 9.91667Z" fill="#18A4E1"/>
</svg>
