<svg width="6" height="10" viewBox="0 0 6 10" fill="none" xmlns="http://www.w3.org/2000/svg">
<path d="M4.5624 9.55001L0.349902 5.35001C0.299902 5.30001 0.264569 5.24585 0.243902 5.18751C0.222902 5.12918 0.212402 5.06668 0.212402 5.00001C0.212402 4.93335 0.222902 4.87085 0.243902 4.81251C0.264569 4.75418 0.299902 4.70001 0.349902 4.65001L4.5624 0.437512C4.67907 0.320845 4.8249 0.262512 4.9999 0.262512C5.1749 0.262512 5.3249 0.325012 5.4499 0.450012C5.5749 0.575012 5.6374 0.720846 5.6374 0.887512C5.6374 1.05418 5.5749 1.20001 5.4499 1.32501L1.7749 5.00001L5.4499 8.67501C5.56657 8.79168 5.6249 8.93535 5.6249 9.10601C5.6249 9.27701 5.5624 9.42501 5.4374 9.55001C5.3124 9.67501 5.16657 9.73751 4.9999 9.73751C4.83324 9.73751 4.6874 9.67501 4.5624 9.55001Z" fill="#053354"/>
</svg>
