<svg width="6" height="10" viewBox="0 0 6 10" fill="none" xmlns="http://www.w3.org/2000/svg">
<path d="M1.4376 0.449986L5.6501 4.64999C5.7001 4.69999 5.73543 4.75415 5.7561 4.81249C5.7771 4.87082 5.7876 4.93332 5.7876 4.99999C5.7876 5.06665 5.7771 5.12915 5.7561 5.18749C5.73543 5.24582 5.7001 5.29999 5.6501 5.34999L1.4376 9.56249C1.32093 9.67915 1.1751 9.73749 1.0001 9.73749C0.825098 9.73749 0.675098 9.67499 0.550098 9.54999C0.425098 9.42499 0.362598 9.27915 0.362598 9.11249C0.362598 8.94582 0.425098 8.79999 0.550098 8.67499L4.2251 4.99999L0.550098 1.32499C0.433431 1.20832 0.375098 1.06465 0.375098 0.893987C0.375098 0.722986 0.437598 0.574986 0.562598 0.449986C0.687598 0.324986 0.833431 0.262486 1.0001 0.262486C1.16676 0.262486 1.3126 0.324986 1.4376 0.449986Z" fill="#053354"/>
</svg>
